# xmcd
#
# Track frame offsets:
#  150
#  10945
#  22428
#  35538
#  50138
#  66193
#  77818
#  92715
#  108663
#  123645
#  135995
#  149138
#  158823
#  167695
#  178548
#  190850
#  205065
#  216753
#  226980
#
# Disc length: 3185 seconds
#
# Revision: 0
# Processed by: cddbd v1.5.1PL0 Copyright (c) Steve Scherf et al.
# Submitted via: AltoMP3 Maker 3.0
#
DISCID=180c6f13
DTITLE=Vary - Country Girls
DYEAR=1900
DGENRE=country
TTITLE0=Honky Tonk Merry Go-Round
TTITLE1=I've Loved And Lost Again
TTITLE2=Let Your Love Flow (Live)
TTITLE3=Coal Miner's Daughter (Live)
TTITLE4=Comin' On Strong (Live)
TTITLE5=Letter To Heaven
TTITLE6=Crystal Chandeliers
TTITLE7=Queen Of The Silver Dollar
TTITLE8=Harper Vally PTA
TTITLE9=Single Girl
TTITLE10=Rose Garden
TTITLE11=Sticks and Stones
TTITLE12=Born A Woman
TTITLE13=All That's Keeping Me Alive
TTITLE14=Stand By Your Man
TTITLE15=It Only Hurts For A Little While
TTITLE16=Silver Threads and Golden Needles (Live)
TTITLE17=I'm Gonna Be A Country Girl Again
TTITLE18=Me and Bobby McGee (Live)
EXTD=
EXTT0=
EXTT1=
EXTT2=
EXTT3=
EXTT4=
EXTT5=
EXTT6=
EXTT7=
EXTT8=
EXTT9=
EXTT10=
EXTT11=
EXTT12=
EXTT13=
EXTT14=
EXTT15=
EXTT16=
EXTT17=
EXTT18=
PLAYORDER=
